<svg version="1.1" id="Layer_1" xmlns="http://www.w3.org/2000/svg" xmlns:xlink="http://www.w3.org/1999/xlink" x="0px" y="0px"
	 width="100%" viewBox="0 0 500 352" enable-background="new 0 0 500 352" xml:space="preserve">
<path fill="#000000" opacity="1.000000" stroke="none" 
	d="
M354.000000,353.000000 
	C237.333344,353.000000 121.166672,352.980621 5.000135,353.095245 
	C1.576259,353.098633 0.901294,352.423981 0.904725,348.999939 
	C1.019639,234.333389 1.019640,119.666710 0.904741,5.000179 
	C0.901311,1.576400 1.576101,0.903034 4.999978,0.905299 
	C168.999878,1.013772 332.999878,1.013765 496.999786,0.905331 
	C500.423157,0.903067 501.098694,1.575685 501.095276,4.999951 
	C500.980316,119.666489 500.980316,234.333176 501.095215,348.999725 
	C501.098633,352.423309 500.425751,353.108215 496.999878,353.097778 
	C449.500275,352.953247 402.000061,353.000000 354.000000,353.000000 
z"/>
<path fill="#D52736" opacity="1.000000" stroke="none" 
	d="
M250.165649,168.650269 
	C267.183716,174.912125 277.008240,187.299469 283.220428,203.398071 
	C288.615814,217.380066 290.754333,231.813354 291.078918,246.677505 
	C291.157135,250.260025 290.028687,251.466309 286.579742,251.038910 
	C284.774719,250.815216 282.919128,251.000076 281.086365,250.999863 
	C273.429504,250.998932 273.259613,250.906845 273.034851,243.105667 
	C272.934814,239.635132 273.170624,236.149918 271.475800,232.952942 
	C270.274078,230.686188 269.346649,227.489517 266.110504,228.219025 
	C263.267883,228.859818 261.429749,231.549393 261.127106,234.437515 
	C260.681854,238.686569 259.438354,242.877563 259.989594,247.225098 
	C260.674988,252.631256 256.291962,251.488373 254.108353,250.794327 
	C250.741150,249.724075 244.564392,255.110626 244.124084,247.302765 
	C243.788712,241.355835 243.546982,235.510483 241.414124,229.873810 
	C237.634918,219.886139 230.005646,215.708038 218.672592,218.167801 
	C208.988159,220.269714 200.890579,225.592468 193.205292,231.428406 
	C186.503922,236.517166 180.267654,242.219727 175.312531,249.155731 
	C174.559570,250.209671 173.544617,251.027817 171.989120,251.014771 
	C164.577194,250.952621 157.164459,250.986954 148.761002,250.986954 
	C165.245636,232.375778 181.264221,214.883499 203.244247,204.400253 
	C215.219833,198.688522 227.557220,195.784515 240.289795,202.126358 
	C244.727188,204.336548 248.758011,207.152435 251.367599,211.661133 
	C252.257401,213.198502 253.862564,214.319321 255.129196,215.641647 
	C257.541534,218.159988 260.428131,220.351151 263.832428,218.423477 
	C267.405518,216.400253 266.540619,212.353653 265.588165,209.391983 
	C262.636566,200.213974 257.051971,192.839218 248.442566,188.185883 
	C233.971329,180.364212 219.278137,181.647018 204.850616,188.112350 
	C188.985703,195.221832 175.201431,205.405991 162.222046,216.999176 
	C151.313675,226.742569 141.830612,237.593872 133.018784,249.132111 
	C131.954315,250.525940 130.933014,251.016769 129.339325,251.008942 
	C122.846519,250.977036 116.353477,250.995636 109.507088,250.995636 
	C110.774261,246.305984 114.221062,243.303680 116.784241,239.900681 
	C127.467110,225.717697 139.630325,212.774429 152.775925,200.911240 
	C169.075928,186.201370 187.330322,174.416763 208.856079,168.644608 
	C222.453903,164.998337 236.155731,164.683914 250.165649,168.650269 
z"/>
<path fill="#D52736" opacity="1.000000" stroke="none" 
	d="
M288.645264,150.257904 
	C301.904053,162.520889 312.198334,176.306412 317.284760,193.579483 
	C320.346649,203.977371 322.113678,214.528412 323.208588,225.327148 
	C323.966461,232.801361 323.623657,240.216125 324.033051,247.644348 
	C324.178802,250.288742 323.216827,251.263428 320.614990,251.028397 
	C318.797974,250.864273 316.953979,250.999649 315.122040,250.999695 
	C306.401215,250.999908 306.093903,251.000397 306.073608,242.132217 
	C306.041412,228.060165 304.392853,214.301361 300.080627,200.864014 
	C291.069763,172.785110 273.781464,153.936478 243.502380,148.906845 
	C223.367203,145.562210 204.550049,150.067612 186.553009,158.314117 
	C168.258591,166.696884 151.892044,178.159271 137.264954,192.098145 
	C133.141098,196.027985 128.355789,199.295807 123.697220,202.619705 
	C121.116692,204.460938 117.954391,204.964386 115.500656,202.525650 
	C113.275070,200.313690 113.614059,197.477570 115.064056,194.750946 
	C119.078827,187.201447 124.868164,180.995590 131.135361,175.473618 
	C140.476074,167.243515 149.989517,159.154541 160.712021,152.626602 
	C178.317642,141.908218 196.632233,133.429901 217.448288,130.854156 
	C236.392593,128.510025 254.469452,130.586990 271.653442,138.957047 
	C277.675568,141.890305 283.049561,145.953674 288.645264,150.257904 
z"/>
<path fill="#D52736" opacity="1.000000" stroke="none" 
	d="
M353.013153,203.915665 
	C356.048187,217.508392 356.346436,230.878250 355.899872,244.266357 
	C355.754242,248.632721 352.025604,250.999313 347.232819,251.044754 
	C341.959839,251.094772 341.505737,246.883194 341.166107,243.627579 
	C340.516602,237.401733 340.768188,231.113464 340.140015,224.819443 
	C338.466431,208.051224 334.505432,191.917984 327.750732,176.549835 
	C321.488922,162.302979 313.243195,149.232040 301.875336,138.421890 
	C288.174042,125.392822 271.780212,117.894150 253.135101,114.911530 
	C245.778076,113.734634 238.464157,113.024971 231.010880,112.934227 
	C212.643860,112.710594 195.299393,116.982414 178.421112,123.855415 
	C160.471466,131.164688 144.375229,141.424469 129.619553,153.887985 
	C128.625092,154.727951 127.624313,155.373260 125.674232,155.289047 
	C127.394958,151.557816 129.937119,148.842224 132.398972,146.136230 
	C147.218811,129.846771 164.539276,116.868561 184.779663,108.157372 
	C196.506607,103.110252 208.842224,100.232605 221.678497,98.812202 
	C239.724991,96.815269 257.121948,98.816696 274.131165,104.628464 
	C294.027893,111.426842 310.486877,123.105286 324.035522,139.346069 
	C339.367859,157.724960 347.833069,179.024506 352.973663,201.980591 
	C353.080475,202.457596 352.998047,202.976990 353.013153,203.915665 
z"/>
<path fill="#FAB60F" opacity="1.000000" stroke="none" 
	d="
M351.750885,128.252930 
	C367.063446,140.742416 379.265015,155.345642 389.078156,172.095901 
	C398.274200,187.792648 404.277252,204.613434 407.609222,222.375839 
	C409.177917,230.738266 410.436523,239.216415 410.057861,247.827911 
	C409.960663,250.038727 409.640076,251.098602 407.073212,251.054123 
	C398.583771,250.907028 390.084320,250.817139 381.600983,251.088715 
	C378.178192,251.198288 377.863373,249.745483 377.963806,246.996933 
	C378.663269,227.854416 375.594299,209.231735 370.041382,190.962311 
	C360.980774,161.152313 343.612762,136.783218 320.609009,116.263969 
	C314.208893,110.555099 306.953430,105.805199 300.246399,100.373222 
	C319.120667,106.287720 336.273193,115.349915 351.750885,128.252930 
z"/>
<path fill="#FAB60F" opacity="1.000000" stroke="none" 
	d="
M145.000961,76.882980 
	C146.585739,74.610596 144.655518,70.911385 147.336334,70.259201 
	C149.180649,69.810509 151.510849,71.655182 153.688812,72.227997 
	C161.182236,74.198799 168.934875,74.928108 176.261566,77.853699 
	C182.120651,80.193260 186.607529,83.963066 190.865814,88.323288 
	C192.397385,89.891510 192.090195,90.570122 190.205673,91.382149 
	C186.343140,93.046494 182.612640,95.020439 178.735855,96.647980 
	C166.812576,101.653564 156.227768,108.844841 145.978897,116.577370 
	C144.438019,117.739922 142.947327,120.094757 141.217697,119.358482 
	C139.386322,118.578888 139.467224,115.793800 138.983917,113.761703 
	C136.061783,101.475800 140.133865,90.300209 144.390015,79.145035 
	C144.620392,78.541191 144.794434,77.915863 145.000961,76.882980 
z"/>
<path fill="#FAB60F" opacity="1.000000" stroke="none" 
	d="
M338.339050,104.731003 
	C330.868073,99.728683 323.236542,95.873451 315.123749,92.964111 
	C308.853027,90.715370 308.987457,90.785301 313.374176,86.063416 
	C320.428131,78.470428 329.805542,76.135025 339.343597,73.981728 
	C343.893829,72.954475 348.741302,73.116455 352.925964,70.560188 
	C354.025757,69.888359 355.721710,69.173996 355.902069,71.280991 
	C356.604431,79.485970 361.150848,86.521080 362.731842,94.432747 
	C364.121307,101.385925 364.630981,108.363892 362.850067,115.350182 
	C361.584229,120.315811 360.607025,120.528671 356.674896,117.232086 
	C351.084167,112.544945 345.203979,108.236305 338.339050,104.731003 
z"/>
<path fill="#FAB60F" opacity="1.000000" stroke="none" 
	d="
M72.973976,155.357864 
	C72.892998,154.777664 72.830780,154.623108 72.771255,154.467529 
	C69.868874,146.880478 70.025208,147.347229 77.473686,144.852890 
	C84.998192,142.333084 92.405533,139.602921 100.275887,138.304764 
	C106.432114,137.289322 112.360298,138.392044 118.148895,140.163742 
	C121.185997,141.093323 119.107964,143.183136 118.131516,144.259949 
	C113.389847,149.489105 109.736633,155.456390 105.919098,161.337036 
	C100.242699,170.081146 95.463486,179.249634 91.961426,189.074661 
	C90.977028,191.836426 90.163574,192.533554 87.410927,190.087494 
	C79.216759,182.806000 76.251884,173.151581 74.032310,163.051483 
	C73.508461,160.667725 73.330872,158.207886 72.973976,155.357864 
z"/>
<path fill="#FAB60F" opacity="1.000000" stroke="none" 
	d="
M383.720032,144.218048 
	C382.148468,141.740723 382.059326,140.757492 385.245575,139.761871 
	C396.847961,136.136444 407.682068,138.771851 418.442780,142.844376 
	C422.082001,144.221695 425.744629,145.507538 429.602997,145.939163 
	C431.459686,146.146866 432.791199,146.594513 431.717041,148.516586 
	C427.972778,155.216614 428.362579,162.936127 426.210938,170.050644 
	C423.882263,177.750351 420.471283,184.385147 414.651276,190.001236 
	C411.658661,192.888992 411.101624,191.727539 409.961975,188.710892 
	C404.135071,173.287018 395.701355,159.319763 385.726379,146.249207 
	C385.226624,145.594406 384.562347,145.065201 383.720032,144.218048 
z"/>
<path fill="#FAB60F" opacity="1.000000" stroke="none" 
	d="
M222.258255,77.396652 
	C225.046555,65.672791 233.276550,58.391743 241.522034,51.269089 
	C244.259201,48.904655 247.138306,46.811569 249.050049,43.680634 
	C250.173004,41.841537 251.563660,41.303951 252.769333,43.418198 
	C256.234467,49.494606 262.449219,52.733387 267.206085,57.470478 
	C273.958160,64.194534 278.547211,71.767097 280.621521,81.057991 
	C281.240356,83.829926 279.539490,83.054863 278.558777,82.855652 
	C268.567230,80.826126 258.467987,79.680031 248.297775,80.078285 
	C239.359726,80.428291 230.427292,81.248634 221.218048,83.009621 
	C221.527573,81.076706 221.793549,79.415741 222.258255,77.396652 
z"/>
<path fill="#D52736" opacity="1.000000" stroke="none" 
	d="
M226.344604,285.713013 
	C227.537674,302.915314 219.155380,310.474365 203.466171,311.942902 
	C199.503326,312.313812 195.463242,311.798737 191.482681,312.058685 
	C187.845245,312.296204 186.911346,310.722229 186.950134,307.372437 
	C187.083160,295.881134 187.043671,284.387054 186.966812,272.894714 
	C186.950439,270.448242 187.268127,269.393036 190.268372,268.800964 
	C197.741623,267.326172 205.069427,267.760925 212.337112,269.248108 
	C219.936539,270.803162 225.537323,277.714020 226.344604,285.713013 
z"/>
<path fill="#D52736" opacity="1.000000" stroke="none" 
	d="
M254.020920,285.000000 
	C261.998108,284.997467 261.998108,284.997467 261.998627,277.280212 
	C261.998688,276.780914 261.998566,276.281586 261.998688,275.782288 
	C262.000244,269.333405 265.214722,267.099640 271.440277,269.019928 
	C273.024597,269.508606 272.979706,270.522461 272.981079,271.659454 
	C272.996277,284.142120 272.959045,296.625000 273.024261,309.107330 
	C273.035400,311.236389 272.298676,311.897095 270.152893,312.051727 
	C261.992737,312.639709 261.999237,312.729858 261.998657,304.461243 
	C261.997925,293.817657 261.996552,293.990509 251.249695,293.905670 
	C247.589355,293.876770 246.598846,295.136719 246.957062,298.484070 
	C247.185989,300.623199 246.999939,302.806793 246.999542,304.970459 
	C246.998245,311.924805 244.646378,313.638550 237.802475,312.019165 
	C235.864853,311.560699 236.018585,310.362701 236.016754,309.069214 
	C235.999237,296.752960 236.051224,284.436371 235.964630,272.120728 
	C235.947998,269.756073 236.740891,269.052765 239.104095,268.940491 
	C247.003738,268.565308 246.998734,268.459808 246.999588,276.323029 
	C246.999664,276.988770 246.990295,277.654694 247.001022,278.320251 
	C247.125702,286.055969 246.034973,284.855042 254.020920,285.000000 
z"/>
<path fill="#D52736" opacity="1.000000" stroke="none" 
	d="
M388.300751,295.669434 
	C388.068268,300.231903 387.911926,304.396759 388.041168,308.552673 
	C388.119843,311.083374 387.358612,311.989319 384.680786,312.067261 
	C376.997467,312.290894 377.000702,312.425812 377.000183,304.966644 
	C376.999481,294.810333 377.157501,284.650299 376.916595,274.499695 
	C376.829620,270.834381 377.279297,268.951965 381.621887,268.546204 
	C389.058655,267.851349 396.358002,267.060242 403.274506,270.723846 
	C409.784485,274.172089 411.422760,283.071808 406.111053,288.179535 
	C403.551514,290.640747 403.721008,292.204407 405.361115,294.984497 
	C408.361115,300.069855 409.074585,306.009033 410.846069,311.543671 
	C410.437378,311.695862 410.284637,311.792908 410.124847,311.806458 
	C400.112427,312.654938 400.078949,312.664825 397.187988,303.467285 
	C395.806580,299.072266 395.266327,293.902435 388.300751,295.669434 
z"/>
<path fill="#D52736" opacity="1.000000" stroke="none" 
	d="
M93.314354,304.325378 
	C96.674812,293.850647 100.031372,283.780945 102.875519,273.568542 
	C103.908920,269.857941 105.490616,268.773682 109.274757,268.896210 
	C118.421638,269.192322 118.486221,268.957672 121.391121,277.838959 
	C124.739441,288.075928 127.823654,298.402222 131.348068,308.576935 
	C132.385941,311.573212 131.566757,311.926819 128.927628,312.038544 
	C121.112183,312.369263 120.770607,312.551300 118.244324,304.228790 
	C116.576195,298.733368 112.623840,301.636047 109.679169,301.092438 
	C107.603264,300.709229 105.481972,300.420166 104.471687,303.793854 
	C101.782860,312.772705 101.532600,312.697754 91.181458,311.641937 
	C91.831154,309.291718 92.469444,306.982819 93.314354,304.325378 
z"/>
<path fill="#D52736" opacity="1.000000" stroke="none" 
	d="
M301.032898,269.000000 
	C307.287964,267.468048 309.476227,270.695526 310.934570,275.639343 
	C314.162476,286.582001 317.523773,297.493805 321.223419,308.283508 
	C322.293579,311.404572 321.803802,311.960999 318.763123,312.046753 
	C311.051727,312.264191 310.641083,312.482727 308.409668,304.533173 
	C306.872620,299.057434 303.018097,301.535370 300.025085,301.045959 
	C297.347931,300.608185 295.224365,300.859344 294.152435,304.363739 
	C291.524536,312.955078 291.298065,312.885803 281.032562,311.544495 
	C285.287018,298.156769 289.661560,284.864594 293.684601,271.466858 
	C295.038422,266.958282 298.306488,269.853912 301.032898,269.000000 
z"/>
<path fill="#D52736" opacity="1.000000" stroke="none" 
	d="
M358.724335,280.360199 
	C361.652893,289.610107 364.157410,298.584839 367.230957,307.360260 
	C368.510254,311.012909 367.989655,311.718750 364.172882,312.142914 
	C358.390869,312.785431 355.590454,310.704742 354.913086,305.057220 
	C354.205048,299.153900 349.510376,301.515167 346.165283,300.963135 
	C342.589081,300.372925 341.168579,302.097839 340.288361,305.285583 
	C338.272430,312.586517 338.171814,312.410583 330.881866,312.063324 
	C327.847626,311.918823 327.593658,310.603149 328.337311,308.281860 
	C332.174072,296.305084 336.144348,284.368439 339.756134,272.324249 
	C340.557678,269.651276 341.751434,269.027130 344.248230,268.954254 
	C354.818451,268.645599 354.816559,268.581085 358.724335,280.360199 
z"/>
<path fill="#D52736" opacity="1.000000" stroke="none" 
	d="
M165.949066,308.129578 
	C164.217758,304.878815 164.909531,300.590881 159.089920,300.737518 
	C153.316849,300.882904 150.137741,301.932709 149.788620,308.257690 
	C149.616455,311.377014 140.730667,313.813354 138.509995,311.562744 
	C137.629913,310.670807 137.947739,309.422699 138.306183,308.304352 
	C142.177444,296.225677 146.161560,284.181030 149.825851,272.039856 
	C150.583282,269.530182 151.796249,269.065643 154.026917,268.967072 
	C164.663422,268.497192 164.675888,268.448486 168.039749,278.850891 
	C171.145081,288.453766 174.072784,298.117310 177.376312,307.651031 
	C178.558243,311.061981 177.906799,312.440125 174.348892,311.963165 
	C171.306580,311.555298 167.037033,313.916687 165.949066,308.129578 
z"/>
<path fill="#FAB60F" opacity="1.000000" stroke="none" 
	d="
M56.758335,235.623932 
	C63.728825,227.447037 72.248383,222.763626 82.722359,221.306229 
	C81.243698,230.158020 80.171112,239.018860 80.057777,247.951828 
	C80.027580,250.332245 79.351410,251.070160 76.958328,251.047455 
	C65.525780,250.939011 54.091640,250.998840 41.148033,250.998840 
	C48.323475,246.749466 51.457199,240.411255 56.758335,235.623932 
z"/>
<path fill="#FAB60F" opacity="1.000000" stroke="none" 
	d="
M452.788574,251.000000 
	C443.838623,250.999985 435.353668,250.821289 426.882233,251.082138 
	C423.151276,251.197037 421.930176,250.379089 421.845032,246.303482 
	C421.672272,238.037704 420.948822,229.753021 419.193665,221.465927 
	C438.632568,222.849380 446.941437,239.559586 459.995605,251.000000 
	C457.396759,251.000000 455.327911,251.000000 452.788574,251.000000 
z"/>
<path fill="#D52736" opacity="1.000000" stroke="none" 
	d="
M227.792572,250.977539 
	C215.548203,250.992142 203.761124,250.992142 191.904419,250.992142 
	C196.003754,242.383118 211.338684,232.647247 220.005798,232.991440 
	C224.393158,233.165665 227.571503,235.299576 228.883698,239.340347 
	C230.121262,243.151276 231.774002,247.283173 227.792572,250.977539 
z"/>
<path fill="#D52736" opacity="1.000000" stroke="none" 
	d="
M97.490189,229.731964 
	C91.915550,222.359558 97.427231,217.104797 100.831863,211.915695 
	C104.078545,206.967316 108.105751,206.082275 111.521461,208.831619 
	C115.559608,212.081940 114.656143,215.920090 112.163834,219.254272 
	C108.509232,224.143372 105.436523,230.161133 97.490189,229.731964 
z"/>
<path fill="#D52736" opacity="1.000000" stroke="none" 
	d="
M124.438934,157.326874 
	C124.434616,156.793411 124.853905,156.177658 124.906334,156.207443 
	C125.942596,156.796371 124.920853,157.110352 124.438934,157.326874 
z"/>
<path fill="#000000" opacity="1.000000" stroke="none" 
	d="
M198.000916,281.201538 
	C198.475891,277.133728 203.050858,275.594849 207.857178,277.409698 
	C213.318054,279.471741 216.007034,285.417236 214.981461,293.161896 
	C214.347153,297.951935 209.721649,302.420013 204.805374,302.991760 
	C198.004578,303.782654 198.003281,303.782684 198.000626,297.104736 
	C197.998581,291.962524 198.000351,286.820312 198.000916,281.201538 
z"/>
<path fill="#000000" opacity="1.000000" stroke="none" 
	d="
M396.759949,278.304504 
	C398.581543,280.782654 398.568756,282.907135 396.628418,284.829163 
	C394.739380,286.700409 392.394989,287.218414 389.790009,286.988068 
	C388.534821,286.877045 388.036926,286.277618 388.026093,285.108582 
	C388.018372,284.276276 387.869293,283.416351 388.027252,282.616974 
	C388.451996,280.467957 386.645203,277.479279 389.147064,276.285767 
	C391.571503,275.129211 394.336212,276.103882 396.759949,278.304504 
z"/>
<path fill="#000000" opacity="1.000000" stroke="none" 
	d="
M113.599213,292.929749 
	C111.216797,292.854858 109.209991,293.379242 107.099861,292.479889 
	C108.459442,288.146942 109.807655,283.850220 111.155861,279.553497 
	C111.801521,284.194794 115.822365,287.996643 113.599213,292.929749 
z"/>
<path fill="#000000" opacity="1.000000" stroke="none" 
	d="
M303.065887,285.004761 
	C303.211823,285.539246 303.348724,285.665436 303.384918,285.815857 
	C305.305054,293.799072 307.069427,293.172852 297.101166,292.693695 
	C298.451935,288.256989 299.766388,283.939575 301.312439,278.861511 
	C302.047333,281.349274 302.528625,282.978516 303.065887,285.004761 
z"/>
<path fill="#000000" opacity="1.000000" stroke="none" 
	d="
M349.312286,284.676575 
	C350.226135,287.538330 350.936462,290.057404 351.688690,292.725098 
	C350.857483,292.830048 350.222351,292.969849 349.584808,292.981537 
	C343.240295,293.098022 343.195923,293.007904 345.039520,287.120880 
	C345.909607,284.342621 346.651184,281.524170 347.549957,278.377289 
	C348.123077,280.567291 348.615906,282.450592 349.312286,284.676575 
z"/>
<path fill="#000000" opacity="1.000000" stroke="none" 
	d="
M156.044861,283.260986 
	C156.982620,281.633911 157.047943,280.121826 157.332092,277.335144 
	C158.545883,283.449524 161.129852,287.754120 161.315292,292.727997 
	C161.019363,292.798553 160.700302,292.929291 160.375992,292.943909 
	C153.142853,293.270355 153.046677,293.142517 155.222580,286.480316 
	C155.525604,285.552460 155.750275,284.599060 156.044861,283.260986 
z"/>
</svg>